<?xml version="1.0" encoding="UTF-8"?>
<svg id="Layer_2" data-name="Layer 2" xmlns="http://www.w3.org/2000/svg" viewBox="0 0 450 777.4">
  <defs>
    <style>
      .cls-1 {
        fill: #ccf2f4;
      }

      .cls-2 {
        fill: #6fd4ef;
      }

      .cls-3 {
        fill: #a4ebf3;
      }

      .cls-4 {
        fill: #f4f9f9;
      }
    </style>
  </defs>
  <g id="Layer_1-2" data-name="Layer 1">
    <path class="cls-4" d="M450,371.4v403.81h-153.22c-34.12-50.61-74.36-102.8-121.84-155.19C118.63,557.89,59.43,503.58,0,456.21V35.81h132.03c34.12,50.6,74.34,102.81,121.82,155.2,63.01,69.52,129.62,129.23,196.15,180.39Z"/>
    <path class="cls-1" d="M450,433.55v343.85h-93.28c-.46-.73-.91-1.46-1.38-2.19-38.71-61.6-86.36-126.16-145.12-191C142.77,509.79,71.19,446.61,0,393.11V0h51.72c6.91,11.81,14.15,23.75,21.73,35.81,38.72,61.6,86.37,126.16,145.14,190.99,74.15,81.81,153.29,150.04,231.41,206.75Z"/>
    <path class="cls-3" d="M450,502.49v274.91h-34.15c-.42-.73-.83-1.46-1.26-2.19-43.08-75.31-99.4-156.4-173.3-237.93C164.01,452.01,81.32,381.5,0,323.4V10.32c4.57,8.42,9.3,16.91,14.21,25.49,43.07,75.31,99.4,156.39,173.29,237.92,84.01,92.68,174.42,167.94,262.5,228.76Z"/>
    <path class="cls-2" d="M450,562.89v184.65c-44.04-79.26-102.73-165.44-181.29-252.11C182.73,400.56,90.04,323.95,0,262.39V100.21c41.21,68.83,93.52,141.92,160.08,215.37,92.76,102.33,193.32,183.42,289.92,247.31Z"/>
  </g>
</svg>