<?xml version="1.0" encoding="UTF-8"?>
<svg id="Layer_2" data-name="Layer 2" xmlns="http://www.w3.org/2000/svg" viewBox="0 0 88.25 50.11">
  <defs>
    <style>
      .cls-1 {
        fill: #3953a4;
        stroke: #fff;
        stroke-miterlimit: 10;
        stroke-width: .5px;
      }
    </style>
  </defs>
  <g id="Layer_1-2" data-name="Layer 1">
    <g>
      <path class="cls-1" d="M33.7,49.86H1l-.69-.97L33.15,1.98h-14.77C10.66,1.98,6.52,6.74,3.27,12.67l-1.1-.48L6.31.25h31.74l.41,1.04L5.55,48.14h17.94c4.69,0,9.8-3.38,14.01-10.63l1.1.55-4.9,11.8Z"/>
      <path class="cls-1" d="M45.57,49.86v-1.72c5.18,0,6.56-.9,6.56-4.55V6.81c0-3.38-1.38-4.83-6.56-4.83V.25h23.81c10.49,0,16.42,4.9,16.42,11.52,0,4.83-2.62,8.97-10.76,11.18,9.45,1.79,12.97,6.76,12.97,13.25,0,7.11-5.8,13.66-17.25,13.66h-25.19ZM56.47,22.61h12.76c7.04,0,11.87-5.87,11.87-11.18,0-4.28-3.45-9.45-11.87-9.45h-6.97c-4.07,0-5.8,1.45-5.8,4.83v15.8ZM56.47,24.33v19.25c0,3.66,1.72,4.55,5.8,4.55h7.59c8.83,0,13.59-5.87,13.59-11.94s-5.38-11.87-13.04-11.87h-13.94Z"/>
    </g>
  </g>
</svg>